<svg xmlns="http://www.w3.org/2000/svg" width="22.84mm" height="43.57mm" viewBox="0 0 64.74 123.51"><defs><style>.cls-1,.cls-2,.cls-4{fill:none;}.cls-1,.cls-2,.cls-3{stroke:#1d1d1b;}.cls-1,.cls-2,.cls-3,.cls-4{stroke-miterlimit:10;}.cls-1{stroke-width:3px;}.cls-2{stroke-width:2px;}.cls-3{fill:#1d1d1b;stroke-width:0.5px;}.cls-4{stroke:#fff;stroke-linecap:round;stroke-width:0.25px;opacity:0.7;}</style></defs><g id="Layer_2" data-name="Layer 2"><g id="Layer_13" data-name="Layer 13"><rect class="cls-1" x="1.5" y="1.5" width="61.74" height="120.51"/><rect class="cls-2" x="23.63" y="93.79" width="17.47" height="28.22"/><rect class="cls-3" x="7.76" y="71.97" width="13.19" height="13.19"/><rect class="cls-3" x="25.93" y="71.97" width="13.19" height="13.19"/><rect class="cls-3" x="44.41" y="71.97" width="13.19" height="13.19"/><rect class="cls-3" x="7.6" y="51.86" width="13.19" height="13.19"/><rect class="cls-3" x="25.77" y="51.86" width="13.19" height="13.19"/><rect class="cls-3" x="44.25" y="51.86" width="13.19" height="13.19"/><rect class="cls-3" x="7.45" y="31.75" width="13.19" height="13.19"/><rect class="cls-3" x="25.61" y="31.75" width="13.19" height="13.19"/><rect class="cls-3" x="44.1" y="31.75" width="13.19" height="13.19"/><rect class="cls-3" x="7.29" y="11.63" width="13.19" height="13.19"/><rect class="cls-3" x="25.46" y="11.63" width="13.19" height="13.19"/><rect class="cls-3" x="43.94" y="11.63" width="13.19" height="13.19"/><line class="cls-4" x1="16.2" y1="14.66" x2="11.05" y2="21.26"/><line class="cls-4" x1="17.35" y1="17.96" x2="14.43" y2="21.8"/><line class="cls-4" x1="34.37" y1="14.66" x2="29.22" y2="21.26"/><line class="cls-4" x1="35.52" y1="17.96" x2="32.6" y2="21.8"/><line class="cls-4" x1="53.01" y1="14.66" x2="47.85" y2="21.26"/><line class="cls-4" x1="54.16" y1="17.96" x2="51.24" y2="21.8"/><line class="cls-4" x1="16.36" y1="34.78" x2="11.21" y2="41.37"/><line class="cls-4" x1="17.51" y1="38.07" x2="14.59" y2="41.91"/><line class="cls-4" x1="33.8" y1="34.78" x2="28.64" y2="41.37"/><line class="cls-4" x1="34.94" y1="38.07" x2="32.02" y2="41.91"/><line class="cls-4" x1="52.85" y1="34.51" x2="47.7" y2="41.1"/><line class="cls-4" x1="54" y1="37.81" x2="51.08" y2="41.64"/><line class="cls-4" x1="16.36" y1="54.04" x2="11.21" y2="60.63"/><line class="cls-4" x1="17.51" y1="57.34" x2="14.59" y2="61.17"/><line class="cls-4" x1="33.8" y1="54.04" x2="28.64" y2="60.63"/><line class="cls-4" x1="34.94" y1="57.34" x2="32.02" y2="61.17"/><line class="cls-4" x1="52.43" y1="54.04" x2="47.28" y2="60.63"/><line class="cls-4" x1="53.58" y1="57.34" x2="50.66" y2="61.17"/><line class="cls-4" x1="16.2" y1="75" x2="11.05" y2="81.6"/><line class="cls-4" x1="17.35" y1="78.3" x2="14.43" y2="82.14"/><line class="cls-4" x1="34.06" y1="75" x2="28.9" y2="81.6"/><line class="cls-4" x1="35.21" y1="78.3" x2="32.28" y2="82.14"/><line class="cls-4" x1="53.59" y1="74.73" x2="48.43" y2="81.33"/><line class="cls-4" x1="54.74" y1="78.03" x2="51.82" y2="81.87"/></g></g></svg>
