<svg xmlns="http://www.w3.org/2000/svg" width="63.12mm" height="42mm" viewBox="0 0 178.92 119.05"><defs><style>.cls-1{fill:#010101;}</style></defs><g id="Layer_2" data-name="Layer 2"><g id="Layer_13" data-name="Layer 13"><path class="cls-1" d="M25.45,83.24,18.3,76.09A43.49,43.49,0,0,1,5.84,49.94,2.93,2.93,0,0,0,0,50.55,49.3,49.3,0,0,0,14.16,80.23l7.15,7.15a2.92,2.92,0,0,0,4.14,0A2.92,2.92,0,0,0,25.45,83.24Z"/><path class="cls-1" d="M120.11,38.55a2.92,2.92,0,0,0-4.14,0L103.52,51a2.92,2.92,0,0,0,0,4.14,2.92,2.92,0,0,0,4.14,0l12.45-12.45A2.93,2.93,0,0,0,120.11,38.55Z"/><path class="cls-1" d="M128.88,50.72a3,3,0,0,0-4.15,0L104.42,71a2.93,2.93,0,1,0,4.14,4.14l20.32-20.31A3,3,0,0,0,128.88,50.72Z"/><path class="cls-1" d="M176.3,28a2.93,2.93,0,0,0-3.22,2.6,43.44,43.44,0,0,1-12.46,26.15L125,92.39a4.47,4.47,0,1,1-6.32-6.33v0l22.9-22.9A2.93,2.93,0,0,0,137.4,59L110.47,85.93A10.21,10.21,0,0,0,108,82.05L94.39,68.41l7-7a2.93,2.93,0,1,0-4.14-4.14l-7,7L67.82,41.85a.37.37,0,0,1,.27-.63l12.57,0a10.92,10.92,0,0,0,0-21.83h0l-49,.05a2.93,2.93,0,1,0,0,5.85h0l49,0h0a5.06,5.06,0,0,1,0,10.11l-12.57,0A6.23,6.23,0,0,0,63.68,46l40.2,40.2a4.48,4.48,0,0,1,0,6.31l0,0h0a4.48,4.48,0,0,1-6.32,0L63,57.92a2.93,2.93,0,0,0-4.14,4.14L100,103.25a4.47,4.47,0,0,1,0,6.33,4.48,4.48,0,0,1-6.33,0L54.19,70.09a2.93,2.93,0,1,0-4.14,4.15l31.32,31.32A4.48,4.48,0,0,1,75,111.89L41.52,78.37a2.93,2.93,0,1,0-4.14,4.14L60.3,105.43A4.48,4.48,0,0,1,54,111.76L32.8,90.59a2.93,2.93,0,1,0-4.14,4.14L49.83,115.9a10.32,10.32,0,0,0,17-3.89l4,4a10.32,10.32,0,0,0,17-3.89l1.58,1.58a10.33,10.33,0,0,0,14.62-14.61h0A10.4,10.4,0,0,0,108,96.66l0,0,4-4a10.34,10.34,0,0,0,17.06,3.89l35.66-35.67a49.37,49.37,0,0,0,14.15-29.68A2.92,2.92,0,0,0,176.3,28Z"/><path class="cls-1" d="M157.2,34a2.92,2.92,0,0,0-3.78-1.68,24.06,24.06,0,0,1-14.11,1A2.93,2.93,0,1,0,138,39.07a29.89,29.89,0,0,0,6.71.76,30.16,30.16,0,0,0,10.82-2A2.94,2.94,0,0,0,157.2,34Z"/><path class="cls-1" d="M147.28.05,98.19,0h0A10.83,10.83,0,0,0,87.36,10.8V11a10.82,10.82,0,0,0,10.8,10.84l13.57,0L84.85,48.73A2.93,2.93,0,1,0,89,52.87l28.93-28.93a29.74,29.74,0,0,0,10.75,11,2.89,2.89,0,0,0,1.49.41,2.93,2.93,0,0,0,1.51-5.44,23.9,23.9,0,0,1-10.15-12v0A2.92,2.92,0,0,0,118.79,16L98.17,16a5,5,0,0,1-5-5v-.19a5,5,0,0,1,5-4.95h0l49.1,0h0a2.93,2.93,0,1,0,0-5.85Z"/></g></g></svg>