<svg xmlns="http://www.w3.org/2000/svg" width="53.63mm" height="50.15mm" viewBox="0 0 152.03 142.15"><defs><style>.cls-1{fill:#010101;}</style></defs><g id="Layer_2" data-name="Layer 2"><g id="Layer_13" data-name="Layer 13"><path class="cls-1" d="M75.91,22.56A11.28,11.28,0,1,0,64.63,11.28,11.29,11.29,0,0,0,75.91,22.56Zm-61.3,0A11.28,11.28,0,1,1,25.89,11.28,11.3,11.3,0,0,1,14.61,22.56Zm122.81,0a11.28,11.28,0,1,0-11.28-11.28A11.29,11.29,0,0,0,137.42,22.56ZM152,77.14c0,1.91-2.78,57.53-2.78,57.53a7.48,7.48,0,0,1-15,0s-5.19-57.89-6.63-79.51L115.73,69.47a5.33,5.33,0,0,1-4.1,1.93c-.21,0-.41,0-.62,0a5.38,5.38,0,0,1-4.17-2.92L92.57,39.85V134c0,4.48-3.32,8.15-7.46,8.15s-7.45-3.67-7.45-8.15V82.45a1.52,1.52,0,1,0-3,0V134c0,4.48-3.32,8.15-7.46,8.15s-7.46-3.67-7.46-8.15V39.34L45.18,68.44A5.36,5.36,0,0,1,41,71.36c-.2,0-.41,0-.61,0a5.34,5.34,0,0,1-4.11-1.93L24.38,55.16c-1.43,21.62-6.63,79.51-6.63,79.51a7.37,7.37,0,0,1-7.48,7.48,7.37,7.37,0,0,1-7.48-7.48S0,79.05,0,77.14c0,0,0-43,0-43.18a8,8,0,0,1,8.21-8.21c3.43,0,6.07,1.16,8.83,3.93.08.08,22.24,26.66,22.24,26.66s9.81-20,11.76-23.52c2.63-4.77,6.41-7.07,11.23-7.1H89.66c4.87,0,8.68,2.28,11.32,7.09.06.09,11.77,23.52,11.77,23.52S134.9,29.76,135,29.68a11.87,11.87,0,0,1,8.84-3.93A8.22,8.22,0,0,1,152,34C152,35.61,152,77.14,152,77.14Z"/></g></g></svg>