<svg xmlns="http://www.w3.org/2000/svg" width="66.14mm" height="42.19mm" viewBox="0 0 187.48 119.58">
    <defs>
        <style>
            .cls-1,
            .cls-2,
            .cls-3,
            .cls-4 {
                fill: none;
          stroke: 3px;
            }

            .cls-1,
            .cls-2 {
                stroke: #FFFCEF;
            }

            .cls-1,
            .cls-3 {
                stroke-width: 3px;
            }

            .cls-2,
            .cls-4 {
                stroke-width: 3px;
            }

            .cls-3,
            .cls-4 {
                stroke: #FFFCEF;
            }
        </style>
    </defs>
    <g id="Layer_2" data-name="Layer 2">
        <g id="Layer_13" data-name="Layer 13">
            <path class="cls-1"
                d="M2.59,48.65C6.51,57,13,61.59,23.28,62.93c9.3,1,10.17,2.54,20,14.66C51.43,87.51,53.88,93,53.4,97.36c-.86,7.72,7,19.64,14.68,20.5,8.31.93,9.32-1,3.89-8-4.35-5.9-4.5-6.31-1-9.13s3.89-2.57,8.68,3c5.65,6.84,7.72,6.27,8.65-2,.86-7.72-8.5-17.6-16.22-18.46-4.35-.48-8.64-3.41-16.53-13.51C45.92,57.42,44,56.17,45.08,46.87c.7-8.14,1.11-11.7-3.09-17.17C36.58,22.48,28.7,18.1,21.33,19.48,17,20.4,17,20.8,23.82,29.58c5.6,7.23,6.52,9.74,5,13-3.8,7.19-9.68,5.94-16.86-3.28-4.73-6.14-7.15-7.81-8.53-6.16C1.08,35.86,1,43.26,2.59,48.65Z" />
            <path class="cls-1"
                d="M118.35,28.1H51.43a4.35,4.35,0,0,1-4.35-4.35V5.85A4.35,4.35,0,0,1,51.43,1.5h66.92a4.34,4.34,0,0,1,4.34,4.35v17.9A4.34,4.34,0,0,1,118.35,28.1Z" />
            <path class="cls-2"
                d="M122.69,14.62h3.87a1.12,1.12,0,0,1,1.12,1.14L127.43,40a1.14,1.14,0,0,1-.63,1L86.35,60.67a1.09,1.09,0,0,0-.63,1v8.24" />
            <rect class="cls-1" x="79.51" y="70.1" width="13.39" height="39.44" rx="0.56" />
            <path class="cls-3"
                d="M126.06,37.35C132.7,44,140,51.55,139.91,53.59c-.09,1.83-13.11,12.55-26.52,24.79s-24.51,23.16-24.56,24.18c-.13,2.85,9.77,13.9,12.62,14,1,0,13.1-10,26.51-22.25S153.45,69.92,154.88,70c1.22.05,2.53,4.68,2.8,7.75.28,2.87,2.73,7.27,5.89,9.65l5.3,4.53,8.5-7.57c4.68-4.28,8.55-8.59,8.6-9.81.15-3.26-7.86-11-12.7-12.2a6.15,6.15,0,0,1-4.47-4.9c-.3-2.26-5.1-9-10.53-15.16C148,30.79,138.59,26.49,121.49,25.72l-7.32-.34Z" />
            <line class="cls-4" x1="133.11" y1="59.57" x2="148.57" y2="75.74" />
        </g>
    </g>
</svg>