<svg xmlns="http://www.w3.org/2000/svg" width="56.44mm" height="59.66mm" viewBox="0 0 159.99 169.1"><defs><style>.cls-1,.cls-5,.cls-6{fill:#158f5d;}.cls-2,.cls-3,.cls-4{fill:none;}.cls-2,.cls-3,.cls-4,.cls-5,.cls-6{stroke:#158f5d;stroke-miterlimit:10;}.cls-2{stroke-width:4px;}.cls-3{stroke-width:2px;}.cls-4{stroke-width:3px;}.cls-6{fill-rule:evenodd;}</style></defs><g id="Layer_2" data-name="Layer 2"><g id="Layer_14" data-name="Layer 14"><path class="cls-1" d="M80.89,6.78c9.34,0,18,.38,22.77,1.18,11.24,1.88,13.94,15.38,16.81,19,12.51,4.38,13.7,16.16,10,16.16a2.45,2.45,0,0,1-1-.25c-10.45-4.84-28.66-7.34-46.27-7.34-19,0-37.31,2.92-44.37,9-1.59,1.36-2.88,2-3.89,2-7.81,0,.58-35.7,12.14-37.7,7.49-1.29,21.31-2,33.86-2m0-4c-13.8,0-27.36.8-34.54,2C39.4,6,34.77,14.09,32.11,20.64c-3,7.42-4.66,15.83-4.18,21.41.67,7.8,5.5,8.41,7,8.41,2.07,0,4.19-1,6.49-2.92,5.68-4.85,22.07-8,41.77-8,18.22,0,35.31,2.67,44.58,7a6.52,6.52,0,0,0,2.71.62c2.89,0,5.19-2.13,5.73-5.3.87-5.12-2.65-13.9-13-18.13-.4-.74-.87-1.78-1.31-2.73-2.62-5.69-7-15.22-17.49-17C97.86,2.94,86.87,2.78,80.89,2.78Z"/><path class="cls-2" d="M32.93,27.93c14.5-11,79.07-7.44,88.09-1.42"/><line class="cls-3" x1="68.63" y1="21.27" x2="68.98" y2="6.95"/><line class="cls-3" x1="91.14" y1="22" x2="91.54" y2="6.67"/><path class="cls-3" d="M53,7.17a12.2,12.2,0,0,1,0-3.65"/><path class="cls-3" d="M94.68,6.38a3.33,3.33,0,0,0,0-3"/><path class="cls-3" d="M52.44,3.49c10-2.65,27-3.87,42.8-.14"/><path class="cls-3" d="M32,43.3c-1.35,1.25-2.31,1.61-2.76.79"/><path class="cls-3" d="M29.7,44.21c-.63.73-1.68-3.17-1.58-5.53"/><circle class="cls-3" cx="28.09" cy="38.13" r="0.49"/><path class="cls-1" d="M57.92,47.92c-3.81,0-6.38-.8-7.64-2.39-1.4-1.75-.89-4-.58-5.31,0-.2.09-.37.11-.53.38-2,3.42-7.18,8.35-7.2s7.83,1.16,9.47,7.12c.78,2.83,1.22,4.78.17,6.17s-4,2.12-9.79,2.14Z"/><path class="cls-1" d="M58.25,32.86c4.67,0,7.47,1.24,9,6.85S69,47.51,58,47.55h-.09c-10.37,0-8.09-5.9-7.74-7.79s3.26-6.88,8-6.9h.09m0-.75h-.09c-5.15,0-8.32,5.38-8.72,7.52a4.8,4.8,0,0,1-.11.51c-.3,1.3-.85,3.73.66,5.63,1.35,1.7,3.95,2.53,7.93,2.53H58c6,0,8.85-.66,10.08-2.29s.72-3.56-.1-6.5c-1.7-6.16-5-7.4-9.74-7.4Z"/><path class="cls-1" d="M101.05,47.21c-3.81,0-6.37-.81-7.64-2.39-1.4-1.75-.89-4-.58-5.31a5.06,5.06,0,0,0,.11-.53c.38-2,3.42-7.19,8.35-7.2s7.83,1.16,9.47,7.11c.79,2.83,1.22,4.79.17,6.18s-4,2.12-9.79,2.14Z"/><path class="cls-1" d="M101.38,32.15c4.67,0,7.47,1.23,9,6.84s1.75,7.81-9.26,7.84h-.09c-10.37,0-8.09-5.89-7.74-7.78s3.27-6.88,8-6.9h.09m0-.75h-.09c-5.15,0-8.32,5.38-8.71,7.51q0,.23-.12.51c-.29,1.31-.85,3.74.66,5.63,1.36,1.71,3.95,2.53,7.93,2.53h.09c6,0,8.85-.66,10.08-2.28s.72-3.57-.1-6.51c-1.7-6.15-5-7.39-9.74-7.39Z"/><path class="cls-4" d="M69.35,149.92c10.28,3.62-.47,19.15-21.11,17.57-13.11-1-42.1-44.87-41.79-62C6.77,87.16,26.8,67.71,32.92,93.78S51.46,143.62,69.35,149.92Z"/><path class="cls-5" d="M26.68,78.13c-.18.56-2.05.84-3.45.59s-2.83-15.27-3.38-17.3,4.84-5.75,3.6-.73S26.87,77.58,26.68,78.13Z"/><path class="cls-3" d="M67.05,162.58c1.76.64-10.36,4.7-10.36,4.7s-13.54-8.59-13.52-13.57,5.87-12.24,8.18-7C53.45,151.52,64.14,161.53,67.05,162.58Z"/><path class="cls-5" d="M10.26,62.23c-6.22,5.63-16,47.11-4.2,46.6,3.62-.16,49.25-17.62,30.4-25.4C20.66,76.89,17.19,56,10.26,62.23Z"/><path class="cls-6" d="M138.59,59.77l20.87,8.73s-3.13,35.77-7.2,37.72S108.8,98.48,116.9,91.43s21.8-31.61,21.8-31.61Z"/><path class="cls-6" d="M142.38,103.2c12-1.63-26.69,50.89-27.06,53.11s6.07,2,6.07,2c.85.42,1,2,.69,2.76a2.15,2.15,0,0,1-2,1.38l-16.21-5.25c-.85-.42-.7-2.76-.7-2.76s1.25-1.52,2-1.38c0,0,3.89,3.65,6,1.95s34.2-44.77,24.38-51.8S130.37,104.83,142.38,103.2Z"/></g></g></svg>