<svg xmlns="http://www.w3.org/2000/svg" width="45.41mm" height="45.41mm" viewBox="0 0 128.72 128.72"><defs><style>.cls-1{fill:#010101;}</style></defs><g id="Layer_2" data-name="Layer 2"><g id="Layer_13" data-name="Layer 13"><path class="cls-1" d="M126.09,57.79H78.81V2.63A2.63,2.63,0,0,0,76.18,0H2.63A2.63,2.63,0,0,0,0,2.63V126.09a2.63,2.63,0,0,0,2.63,2.63H72.24a2.63,2.63,0,0,0,2.63-2.63v-7.88h31.52v7.88a2.63,2.63,0,0,0,2.63,2.63h9.19a2.63,2.63,0,0,0,2.63-2.63v-7.88h1.31a2.63,2.63,0,0,0,2.63-2.63V72.24h1.31a2.63,2.63,0,0,0,2.63-2.63V60.42A2.63,2.63,0,0,0,126.09,57.79ZM36.78,123.46H5.25V101.13H36.78Zm0-27.58H5.25V5.25H36.78Zm23.64,27.58H42V5.25H73.55V57.79H53.85a2.63,2.63,0,0,0-2.63,2.63v9.19a2.63,2.63,0,0,0,2.63,2.63h2.63v43.34a2.62,2.62,0,0,0,2.62,2.63h1.32Zm9.19,0H65.67v-5.25h3.94Zm46,0h-3.94v-5.25h3.94Zm3.94-10.5H61.73V94.57h57.79Zm0-23.65H61.73V72.24h57.79ZM123.46,67h-67V63h67Z"/><rect class="cls-1" x="86.69" y="77.49" width="7.88" height="5.25"/><rect class="cls-1" x="86.69" y="99.82" width="7.88" height="5.25"/><rect class="cls-1" x="47.28" y="42.03" width="5.25" height="10.51"/><rect class="cls-1" x="26.27" y="42.03" width="5.25" height="10.51"/><rect class="cls-1" x="17.07" y="109.02" width="7.88" height="5.25"/></g></g></svg>