<svg xmlns="http://www.w3.org/2000/svg" width="57.95mm" height="45.7mm" viewBox="0 0 164.27 129.55"><defs><style>.cls-1{fill:#010101;fill-rule:evenodd;}</style></defs><g id="Layer_2" data-name="Layer 2"><g id="Layer_13" data-name="Layer 13"><path class="cls-1" d="M12.83,65.5a10.33,10.33,0,0,1-7.06.34,8.42,8.42,0,0,1-3.89-2.68A8.66,8.66,0,0,1,0,58.66a11.14,11.14,0,0,1,2.67-8.2h0a3.32,3.32,0,0,1,.38-.37L80.39.61a2.33,2.33,0,0,1,3-.12L160.8,50h0a1.16,1.16,0,0,1,.28.26,10.44,10.44,0,0,1,3,9.64,9,9,0,0,1-2,3.86,8.69,8.69,0,0,1-3.6,2.43,9.65,9.65,0,0,1-7.54-.49v63.74h-5.52V63.55c0-1.12-58.15-36.27-63-40-5.1,3.88-64.05,38.77-64.05,40.2v65.81H12.83V65.5Zm96.74,7.74h15.3L130.21,93h-25.9l5.34-19.75Zm9.13,23V124.8H123a1.15,1.15,0,0,1,0,2.29H111.5a1.15,1.15,0,0,1,0-2.29h4.28V96.25ZM77.49,123.61V127H74.18v-3.38H43.3V127H40v-3.36H38.8a4.11,4.11,0,0,1-2.8-.85,3.74,3.74,0,0,1-1.21-3V98.92a9.42,9.42,0,0,1-2.42-1,5.27,5.27,0,0,1-2.07-2.31,6.63,6.63,0,0,1,1-7.73A7.5,7.5,0,0,1,34.17,86a7.8,7.8,0,0,1,3.39-.43A6.8,6.8,0,0,1,40,86.2V78.31c0-4.23.65-6.43,2.28-7.68s3.87-1.24,7.35-1.24H67.87c3.78,0,6.08.15,7.59,1.5s2,3.68,2,8v7.73a7.5,7.5,0,0,1,3.33-.71,7.93,7.93,0,0,1,3.19.67,7.18,7.18,0,0,1,2.68,1.87,6.19,6.19,0,0,1,.61,7.26A5.86,5.86,0,0,1,85.15,98,9.21,9.21,0,0,1,82.73,99v20.75h0a3.69,3.69,0,0,1-1.19,2.95,4.12,4.12,0,0,1-2.81.85H77.54ZM42.08,87.69a7.11,7.11,0,0,1,1.47,2.68,7.61,7.61,0,0,1,.33,1.71,10.26,10.26,0,0,1,0,1.92v2.68H73.56V94a11.55,11.55,0,0,1,0-1.86,5.94,5.94,0,0,1,.4-1.8,7.45,7.45,0,0,1,1.42-2.29V78.87c0-3.68-.28-5.57-1.34-6.46s-2.94-1-6.23-1H49.66c-3,0-5.07,0-6.14.84s-1.44,2.53-1.44,6v9.36Zm1.8,11.12v3.44H73.56V98.81ZM37.47,87.55a5.92,5.92,0,0,0-2.54.36,4.73,4.73,0,0,0-3.07,5.94,4.53,4.53,0,0,0,.39.9,3.36,3.36,0,0,0,1.21,1.5,8.15,8.15,0,0,0,2.56,1h0a1,1,0,0,1,.81,1v21.55a1.85,1.85,0,0,0,.46,1.44,2.28,2.28,0,0,0,1.51.43h3V93.92a8.55,8.55,0,0,0,0-1.6A5.05,5.05,0,0,0,41.58,91,4.64,4.64,0,0,0,37.47,87.55Zm38.22,9.94a1.61,1.61,0,0,1,0,.31,1.71,1.71,0,0,1,0,.32v4.93a3.53,3.53,0,0,1,0,.46v18.06h3a2.45,2.45,0,0,0,1.52-.35,2,2,0,0,0,.47-1.43h0V98.16a1,1,0,0,1,.87-1,7.51,7.51,0,0,0,2.49-1,3.74,3.74,0,0,0,1.33-1.46,4.22,4.22,0,0,0-.32-5,5.35,5.35,0,0,0-1.88-1.34,6.51,6.51,0,0,0-2.42-.5,5,5,0,0,0-4.88,3.22,4,4,0,0,0-.24,1.19,8.88,8.88,0,0,0,0,1.63.14.14,0,0,1,0,.09h0v3.49ZM43.94,121.55H73.56V104.27H43.88v17.3ZM131.94,4,151,4.78v25.7l-19.07-9.09Z"/></g></g></svg>