<svg xmlns="http://www.w3.org/2000/svg" width="159.84mm" height="175.16mm" viewBox="0 0 453.09 496.51"><defs><style>.cls-1,.cls-4{fill:#fff;}.cls-2,.cls-3{fill:none;stroke:#fff;stroke-miterlimit:10;}.cls-2{stroke-width:6px;}.cls-3{stroke-width:4px;}.cls-4{fill-rule:evenodd;}</style></defs><g id="Layer_2" data-name="Layer 2"><g id="Layer_14" data-name="Layer 14"><path class="cls-1" d="M199.88,168.28c-10.69,12.81-25.91,16.84-37.25,7.38L172,164.42c5.63,3.92,13,3.77,19-3.51s5.64-14.83.2-19.36c-15.48-12.91-33.79,29.47-57.38,9.8-11.25-9.38-10.8-24.16.11-37.25,10.23-12.25,23.9-15.54,35.64-7.31l-9.69,11.61c-4.64-3.25-11.75-2.77-17.47,3.71-5.25,5.93-6.22,13.09-.05,18.24,14.47,12.06,33.72-29.38,57.13-9.86C209.1,138.48,211.79,154,199.88,168.28Z" transform="translate(-73.56 -51.71)"/><path class="cls-1" d="M295.35,78.48c-3.19-11.69-11.2-16-20.81-13.36s-14.45,10.41-11.26,22.1L273,122.88l-13.08,3.57L250.2,90.79c-3.19-11.7-11.2-16-20.81-13.36s-14.45,10.41-11.27,22.1l9.72,35.66-13.2,3.6L197.26,75l13.19-3.59,2,7.29c2.87-6.38,9-11.4,16.6-13.48,10.08-2.75,19.7-.77,26.37,6.37,1.82-8.83,9.52-16.15,18.79-18.68C289.13,48.83,303,55.12,307.9,73l10.25,37.62-13.08,3.57Z" transform="translate(-73.56 -51.71)"/><path class="cls-1" d="M368.45,64.47c10.41,4,15.67,11.71,17.53,18.22l3.46-9,12.87,5-23.82,61.68-12.87-5,3.54-9.18c-6,3.75-15.24,5.82-25.54,1.84-16-6.18-23.82-24.25-16.47-43.28S352.21,58.2,368.45,64.47Zm-1.6,12.12c-9.51-3.68-21.46-.06-26.6,13.26s1.05,24.59,10.56,28.27,21.59-.28,26.74-13.6S376.48,80.31,366.85,76.59Z" transform="translate(-73.56 -51.71)"/><path class="cls-1" d="M445,84.21l10.12,9.2-59.7,65.73L385.27,150Z" transform="translate(-73.56 -51.71)"/><path class="cls-1" d="M479.13,120.75,487,132l-72.87,50.75-7.82-11.23Z" transform="translate(-73.56 -51.71)"/><path class="cls-1" d="M150.43,396.4,94,459.23l24.49,22-8.61,9.59L73.56,458.16l65-72.42Z" transform="translate(-73.56 -51.71)"/><path class="cls-1" d="M175.22,440.26l14,7.64-37,67.71-14-7.65Zm8-18.95a10.15,10.15,0,1,1,4.07,13.87A10.09,10.09,0,0,1,183.18,421.31Z" transform="translate(-73.56 -51.71)"/><path class="cls-1" d="M216.35,460.26l7,66.18,35.55-56.26L275.38,474l-46.14,68.45-18.54-4.33-11-81.76Z" transform="translate(-73.56 -51.71)"/><path class="cls-1" d="M285.92,450.8a10.15,10.15,0,1,1,10.6,9.82A10.1,10.1,0,0,1,285.92,450.8Zm2.88,20.34,15.94-.61,3,77.08-15.95.61Z" transform="translate(-73.56 -51.71)"/><path class="cls-1" d="M389.27,485c-4.57-13.38-14.21-17.78-25.21-14s-16.06,13.17-11.5,26.55l13.92,40.82-15.11,5.15-24.9-73,15.11-5.15,2.85,8.35c2.86-7.64,9.73-14,18.47-16.95,17.1-5.83,33.61.52,40.57,20.93l14.69,43.06-15,5.11Z" transform="translate(-73.56 -51.71)"/><path class="cls-1" d="M431.11,417c9.35-8.44,20.25-10.37,28.2-8.67L451.8,400l11.95-10.78,52.54,58.18C530.36,463,530.89,483.86,513,500c-15.27,13.79-33.44,16.43-46.35,5.07l11.74-10.6c7.12,4.33,17.12,2.66,25.33-4.76,9.14-8.25,10.93-20.06.61-31.49l-8.63-9.56a33.12,33.12,0,0,1-11.21,27.48c-15.07,13.61-38,12.24-53.95-5.42S416,430.62,431.11,417Zm11.78,8c-8.83,8-11.35,22.31-.18,34.68s26.16,11.84,35,3.86,11.07-22.62-.1-35S451.83,417,442.89,425.06Z" transform="translate(-73.56 -51.71)"/><path class="cls-1" d="M300.11,181.43c15.53,0,30.52.7,38.37,2.09,16.22,2.89,19.9,22.44,24,27.75,18,6.51,19.54,23.51,14.18,23.51a3.53,3.53,0,0,1-1.5-.38c-15.59-7.42-43.31-11.34-69.63-11.34s-51.44,3.95-61.37,12.25c-2.3,1.92-4.16,2.78-5.62,2.78-11.36,0,1.34-51.58,18.1-54.29,9.76-1.58,26.92-2.37,43.47-2.37m0-6c-18.35,0-35,.91-44.43,2.45-5.62.91-13.84,5.61-21,22.85-4.5,10.78-7,23-6.34,31,.92,11.43,8.06,12.32,10.23,12.32,3,0,6.11-1.37,9.47-4.18,7.88-6.59,30.46-10.85,57.52-10.85s53.33,4.22,67.05,10.76a9.44,9.44,0,0,0,4.08,1c4.27,0,7.68-3.14,8.51-7.82,1.3-7.43-3.7-20.24-18.65-26.55-.55-1.06-1.21-2.53-1.81-3.88-3.72-8.3-9.95-22.2-25.18-24.91-7.69-1.37-22.43-2.19-39.42-2.19Z" transform="translate(-73.56 -51.71)"/><path class="cls-2" d="M233.7,210.7c21.13-15.65,117.94-10.6,130.87-1.76" transform="translate(-73.56 -51.71)"/><line class="cls-3" x1="214.09" y1="150.49" x2="214.82" y2="129.81"/><line class="cls-3" x1="246.61" y1="151.91" x2="247.43" y2="129.75"/><path class="cls-3" d="M265.29,181.59a37.71,37.71,0,0,1,.06-7.79" transform="translate(-73.56 -51.71)"/><path class="cls-3" d="M325.68,180.77a24.89,24.89,0,0,0,.05-6.31" transform="translate(-73.56 -51.71)"/><path class="cls-3" d="M264,174.32c14.9-4.49,40-6.35,63.42.49" transform="translate(-73.56 -51.71)"/><path class="cls-3" d="M230.35,236.38c-2.92,2.84-5,3.62-6,1.64" transform="translate(-73.56 -51.71)"/><path class="cls-3" d="M225.15,238.65c-.93,1-2.38-4.62-2.19-8" transform="translate(-73.56 -51.71)"/><circle class="cls-3" cx="149.37" cy="177.16" r="0.7"/><path class="cls-1" d="M271.89,240.39c-5.51,0-9.21-1.22-11-3.5-1.95-2.49-1.19-5.66-.74-7.55l.18-.77c.56-2.89,4.94-10.14,11.93-10.14s11.23,1.75,13.49,10.31c1.07,4,1.67,6.84.18,8.77s-5.4,2.88-13.18,2.88Z" transform="translate(-73.56 -51.71)"/><path class="cls-1" d="M272.27,218.8h.08c6.82,0,10.89,1.85,13,10,2.13,8,2.39,11.19-12.64,11.19h-.87c-15.13-.11-11.72-8.63-11.18-11.37s4.79-9.84,11.56-9.84m0-.75c-7.2,0-11.72,7.48-12.3,10.45,0,.22-.1.47-.17.75-.47,2-1.26,5.24.8,7.87,1.86,2.38,5.65,3.6,11.28,3.64h.88c7.92,0,11.82-.88,13.48-3s1-5-.11-9.1c-2.32-8.75-7-10.54-13.78-10.59Z" transform="translate(-73.56 -51.71)"/><path class="cls-1" d="M334.23,240c-5.51,0-9.21-1.22-11-3.5-1.95-2.49-1.19-5.66-.74-7.55l.18-.77c.56-2.89,4.94-10.14,11.93-10.14s11.23,1.75,13.49,10.31c1.08,4,1.67,6.84.18,8.77S342.88,240,335.1,240Z" transform="translate(-73.56 -51.71)"/><path class="cls-1" d="M334.61,218.44h.08c6.82.05,10.89,1.85,13.05,10,2.13,8,2.39,11.19-12.64,11.19h-.87c-15.13-.11-11.72-8.63-11.18-11.37s4.79-9.84,11.56-9.84m0-.75c-7.2,0-11.72,7.48-12.3,10.45,0,.22-.1.47-.17.75-.47,2-1.26,5.24.8,7.87,1.86,2.38,5.65,3.6,11.28,3.64h.88c7.92,0,11.82-.88,13.48-3s1-4.95-.11-9.1c-2.32-8.75-7-10.54-13.78-10.59Z" transform="translate(-73.56 -51.71)"/><path class="cls-2" d="M286.69,388.13c14.8,5.39-1,27.68-30.78,25.06-18.93-1.66-60.14-65.5-59.43-90.27.75-26.46,30-54.25,38.44-16.49S260.93,378.75,286.69,388.13Z" transform="translate(-73.56 -51.71)"/><path class="cls-1" d="M226.15,283.73c-.28.79-3,1.18-5,.8s-3.84-22.12-4.61-25.07,7.08-8.22,5.22-1S226.42,282.93,226.15,283.73Z" transform="translate(-73.56 -51.71)"/><path class="cls-3" d="M283.16,406.39c2.54.95-15,6.63-15,6.63s-19.43-12.61-19.32-19.81,8.67-17.61,11.92-10C263.68,390.2,279,404.83,283.16,406.39Z" transform="translate(-73.56 -51.71)"/><path class="cls-1" d="M202.66,260.49c-9.08,8-23.92,67.83-6.79,67.27,5.23-.17,71.44-24.68,44.33-36.23C217.46,281.84,212.78,251.54,202.66,260.49Z" transform="translate(-73.56 -51.71)"/><path class="cls-4" d="M388.15,258.94l30,12.94s-5.07,51.64-11,54.39-62.69-11.85-50.87-21.92,32-45.34,32-45.34Z" transform="translate(-73.56 -51.71)"/><path class="cls-4" d="M393,321.76c17.39-2.18-39.37,73.13-39.95,76.32s8.75,2.94,8.75,2.94c1.22.61,1.4,2.9,1,4a3.13,3.13,0,0,1-3,2l-23.35-7.85c-1.22-.61-1-4-1-4s1.82-2.17,3-2c0,0,5.57,5.34,8.67,2.91s50.13-64.16,36.05-74.48S375.57,323.93,393,321.76Z" transform="translate(-73.56 -51.71)"/></g></g></svg>