<svg xmlns="http://www.w3.org/2000/svg" width="51.65mm" height="48.44mm" viewBox="0 0 146.42 137.3"><defs><style>.cls-1{fill:#010101;}</style></defs><g id="Layer_2" data-name="Layer 2"><g id="Layer_13" data-name="Layer 13"><path class="cls-1" d="M139.57,101.92a1.15,1.15,0,0,1-1.12-.94L130.5,55.92a1.15,1.15,0,0,1,2.26-.4l7.94,45.06a1.15,1.15,0,0,1-.93,1.33Zm1.2,6.76a1.15,1.15,0,0,1-1.13-.94c-1-5.84-23.39-6.92-37.24-6.22a1.1,1.1,0,0,1-1.2-1.09,1.13,1.13,0,0,1,1.08-1.19h0c3.88-.2,37.9-1.63,39.62,8.1a1.15,1.15,0,0,1-.93,1.32h0a.71.71,0,0,1-.2,0Z"/><path class="cls-1" d="M96.77,70a1.14,1.14,0,0,1-.19-2.27c9.71-1.72,34.52-8.39,32.73-18.55a1.14,1.14,0,1,1,2.25-.4c1.1,6.23-4.5,11.7-16.66,16.28A114.19,114.19,0,0,1,97,70l-.2,0Z"/><path class="cls-1" d="M130.44,50.1a1.14,1.14,0,0,1-.2-2.27l4.51-.79a1.14,1.14,0,0,1,.4,2.25l-4.51.8Z"/><path class="cls-1" d="M145.27,107.89a1.14,1.14,0,0,1-1.12-1L133.82,48.36a1.14,1.14,0,0,1,2.25-.39l10.33,58.58a1.14,1.14,0,0,1-.93,1.32l-.2,0Z"/><path class="cls-1" d="M140.77,108.68a1.14,1.14,0,0,1-.2-2.27l4.5-.79a1.14,1.14,0,1,1,.4,2.25l-4.5.79A.71.71,0,0,1,140.77,108.68Zm-61-3.19a1.15,1.15,0,0,1-1.13-.94L73.12,73a1.14,1.14,0,0,1,.19-.86,1.12,1.12,0,0,1,.74-.47l22.53-4A1.14,1.14,0,1,1,97,70l-21.4,3.78L80.74,103l21.4-3.78a1.15,1.15,0,0,1,1.32.93,1.14,1.14,0,0,1-.92,1.32l-22.53,4Z"/><path class="cls-1" d="M79.81,105.49a1,1,0,0,1-.24,0L67.51,103a1.15,1.15,0,0,1-.89-.92l-4-22.53a1.13,1.13,0,0,1,.52-1.17l10.47-6.49a1.16,1.16,0,0,1,1.07-.08,1.15,1.15,0,0,1,.66.85l5.56,31.54a1.14,1.14,0,0,1-1.12,1.34Zm-11.07-4.62,9.65,2-5-28.21L65,79.87l3.7,21ZM101.54,97a1.14,1.14,0,0,1-1.12-.94l-4-22.53a1.15,1.15,0,0,1,2.26-.4l4,22.53a1.15,1.15,0,0,1-.93,1.33Z"/><path class="cls-1" d="M69.07,84.15a1.14,1.14,0,0,1-.19-2.27l2.25-.39a1.14,1.14,0,0,1,.4,2.25h0l-2.26.4Zm2.38,13.52a1.14,1.14,0,0,1-.19-2.27h0l2.26-.4a1.15,1.15,0,0,1,.39,2.26l-2.26.39a.65.65,0,0,1-.2,0Zm-1.18-6.76a1.14,1.14,0,0,1-.2-2.27l2.25-.39a1.14,1.14,0,1,1,.4,2.25l-2.25.4Zm6-18.48a1.14,1.14,0,0,1-.2-2.27l4.51-.8A1.15,1.15,0,0,1,81,71.62l-4.5.79-.2,0Zm34.25,62.49a1.15,1.15,0,0,1-1-.63L98.8,113a1.13,1.13,0,0,1,.5-1.53,1.15,1.15,0,0,1,1.54.5l10.73,21.34a1.13,1.13,0,0,1-.51,1.53,1,1,0,0,1-.51.13Zm-11.26,2a1.17,1.17,0,0,1-1-.63L87.53,114.94A1.15,1.15,0,0,1,88,113.4a1.13,1.13,0,0,1,1.53.51l10.74,21.34a1.15,1.15,0,0,1-.51,1.53,1.17,1.17,0,0,1-.51.13Z"/><path class="cls-1" d="M97,137.3a1.14,1.14,0,0,1-.2-2.27h0l15.77-2.78a1.14,1.14,0,1,1,.4,2.25l-15.77,2.78a.71.71,0,0,1-.2,0ZM83.25,111.86a1.14,1.14,0,0,1-1.12-1l-.45-2.53a1.15,1.15,0,0,1,.93-1.33h0a1.15,1.15,0,0,1,1.32.93l.45,2.53a1.15,1.15,0,0,1-.93,1.33l-.2,0Z"/><path class="cls-1" d="M83.25,111.86a1.15,1.15,0,0,1-1.13-1,1.16,1.16,0,0,1,.94-1.33l20.28-3.5a1.16,1.16,0,0,1,1.33.93,1.14,1.14,0,0,1-.94,1.32l-20.28,3.51Z"/><path class="cls-1" d="M103.54,108.35a1.15,1.15,0,0,1-1.13-.95l-.39-2.25a1.14,1.14,0,0,1,2.25-.4l.39,2.26a1.14,1.14,0,0,1-.92,1.32Zm41.73-37.43a1.14,1.14,0,0,1-1.14-1.14h0V1.14a1.15,1.15,0,0,1,2.29,0V69.78a1.14,1.14,0,0,1-1.15,1.14ZM14.87,103a1.14,1.14,0,0,1-1.14-1.14h0V1.14A1.14,1.14,0,0,1,14.87,0h0A1.14,1.14,0,0,1,16,1.14h0V101.81A1.14,1.14,0,0,1,14.87,103Z"/><path class="cls-1" d="M8,109.81a1.15,1.15,0,0,1-1.15-1.14h0A1.16,1.16,0,0,1,8,107.52H8a5.72,5.72,0,0,0,5.72-5.71,1.14,1.14,0,0,1,1.14-1.15h0A1.14,1.14,0,0,1,16,101.8h0a8,8,0,0,1-8,8Z"/><path class="cls-1" d="M8,109.81a8,8,0,0,1-8-8,1.15,1.15,0,1,1,2.29,0A5.72,5.72,0,0,0,8,107.52a1.15,1.15,0,0,1,1.14,1.15h0A1.14,1.14,0,0,1,8,109.81Z"/><path class="cls-1" d="M1.14,103A1.14,1.14,0,0,1,0,101.81H0V8A1.15,1.15,0,1,1,2.29,8v93.8A1.14,1.14,0,0,1,1.15,103Zm9.16,0a1.14,1.14,0,0,1-1.15-1.14h0V3.43a1.15,1.15,0,0,1,2.29,0v98.38A1.14,1.14,0,0,1,10.3,103Zm-4.58,0a1.14,1.14,0,0,1-1.14-1.14h0V5.72A1.14,1.14,0,0,1,5.72,4.58h0A1.14,1.14,0,0,1,6.86,5.72h0v96.09A1.14,1.14,0,0,1,5.72,103Z"/><path class="cls-1" d="M8,105.24A1.15,1.15,0,1,1,8,103a1.14,1.14,0,0,0,1.14-1.14,1.15,1.15,0,1,1,2.29,0A3.44,3.44,0,0,1,8,105.24Z"/><path class="cls-1" d="M8,105.24a3.43,3.43,0,0,1-3.43-3.43,1.14,1.14,0,0,1,1.14-1.15h0a1.14,1.14,0,0,1,1.14,1.14h0A1.15,1.15,0,0,0,8,103a1.15,1.15,0,0,1,0,2.29Zm64.27,4.57H8a1.15,1.15,0,0,1-1.15-1.14h0A1.16,1.16,0,0,1,8,107.52H72.28a1.15,1.15,0,0,1,1.14,1.15h0a1.14,1.14,0,0,1-1.14,1.14Zm73-107.52H14.87a1.14,1.14,0,0,1-1.14-1.15h0A1.14,1.14,0,0,1,14.87,0h130.4a1.15,1.15,0,0,1,1.15,1.14h0a1.14,1.14,0,0,1-1.15,1.15Zm-9.15,22.88H28.6A1.16,1.16,0,0,1,27.45,24h0V10.3A1.14,1.14,0,0,1,28.6,9.15H136.12a1.15,1.15,0,0,1,1.15,1.14h0V24a1.16,1.16,0,0,1-1.15,1.15ZM29.74,22.88H135V11.44H29.74Z"/><path class="cls-1" d="M129.26,18.3H35.46a1.15,1.15,0,0,1,0-2.29h93.8a1.15,1.15,0,0,1,0,2.29Zm2.29,91.51H111a1.14,1.14,0,0,1-1.15-1.14h0a1.16,1.16,0,0,1,1.15-1.15h20.59a1.15,1.15,0,0,1,1.14,1.15h0a1.14,1.14,0,0,1-1.14,1.14ZM60.63,54.91h-32a1.15,1.15,0,0,1-1.15-1.15h0V33.17A1.14,1.14,0,0,1,28.6,32h32a1.14,1.14,0,0,1,1.14,1.14h0V53.76a1.15,1.15,0,0,1-1.14,1.15ZM29.74,52.62H59.48V34.32H29.74v18.3Z"/><path class="cls-1" d="M42.32,52.62a1.15,1.15,0,0,1-1.14-1.15,1.12,1.12,0,0,1,.23-.68l6.86-9.15A1.14,1.14,0,1,1,50.1,43l-6.86,9.15A1.16,1.16,0,0,1,42.32,52.62Z"/><path class="cls-1" d="M56.05,52.62a1.16,1.16,0,0,1-.92-.46L48.27,43a1.14,1.14,0,1,1,1.83-1.37h0L57,50.79a1.15,1.15,0,0,1-.24,1.6A1.12,1.12,0,0,1,56.05,52.62Zm-20.59,0a1.14,1.14,0,0,1-1.14-1.15,1.11,1.11,0,0,1,.19-.63L39.08,44A1.15,1.15,0,1,1,41,45.25l-4.58,6.86A1.14,1.14,0,0,1,35.46,52.62Z"/><path class="cls-1" d="M41.56,48a1.14,1.14,0,0,1-1-.51l-1.53-2.28a1.15,1.15,0,0,1,.32-1.59h0A1.15,1.15,0,0,1,41,44l1.52,2.28a1.14,1.14,0,0,1-.32,1.59A1.07,1.07,0,0,1,41.56,48Zm-6.1-4.57A3.44,3.44,0,1,1,38.89,40a3.44,3.44,0,0,1-3.43,3.43Zm0-4.58A1.15,1.15,0,1,0,36.6,40a1.14,1.14,0,0,0-1.14-1.15Z"/><path class="cls-1" d="M97.23,34.32H67.49a1.15,1.15,0,1,1,0-2.29H97.23a1.15,1.15,0,0,1,0,2.29Z"/><path class="cls-1" d="M97.23,41.18H67.49a1.15,1.15,0,1,1,0-2.29H97.23a1.15,1.15,0,0,1,0,2.29Z"/><path class="cls-1" d="M97.23,48H67.49a1.14,1.14,0,1,1,0-2.28H97.23a1.14,1.14,0,0,1,0,2.28Z"/><path class="cls-1" d="M97.23,54.91H67.49a1.15,1.15,0,1,1,0-2.29H97.23a1.15,1.15,0,0,1,0,2.29Z"/><path class="cls-1" d="M97.23,61.77H67.49a1.15,1.15,0,1,1,0-2.29H97.23a1.15,1.15,0,0,1,0,2.29Z"/><path class="cls-1" d="M72.06,68.63H67.49a1.14,1.14,0,1,1,0-2.28h4.57a1.14,1.14,0,1,1,0,2.28Z"/><path class="cls-1" d="M60.73,61.77h-32a1.15,1.15,0,0,1,0-2.29h32a1.15,1.15,0,1,1,0,2.29Z"/><path class="cls-1" d="M56.16,89.22H28.7a1.15,1.15,0,0,1,0-2.29H56.16a1.15,1.15,0,0,1,0,2.29Z"/><path class="cls-1" d="M58.44,96.09H28.7a1.15,1.15,0,0,1,0-2.29H58.44a1.15,1.15,0,1,1,0,2.29Z"/><path class="cls-1" d="M60.73,103h-32a1.15,1.15,0,0,1,0-2.29h32a1.15,1.15,0,1,1,0,2.29Z"/><path class="cls-1" d="M60.73,68.63h-32a1.14,1.14,0,0,1,0-2.28h32a1.14,1.14,0,1,1,0,2.28Z"/><path class="cls-1" d="M58.44,75.5H28.7a1.15,1.15,0,0,1,0-2.29H58.44a1.15,1.15,0,1,1,0,2.29Z"/><path class="cls-1" d="M56.16,82.36H28.7a1.14,1.14,0,0,1-1.14-1.14h0a1.14,1.14,0,0,1,1.14-1.15H56.16a1.14,1.14,0,0,1,1.14,1.14h0a1.14,1.14,0,0,1-1.14,1.14Z"/><path class="cls-1" d="M136.12,34.32h-32a1.15,1.15,0,0,1,0-2.29h32a1.15,1.15,0,1,1,0,2.29Z"/><path class="cls-1" d="M136.12,41.18h-32a1.15,1.15,0,0,1,0-2.29h32a1.15,1.15,0,1,1,0,2.29Z"/><path class="cls-1" d="M124.68,48H104.09a1.14,1.14,0,0,1,0-2.28h20.59a1.14,1.14,0,1,1,0,2.28Z"/><path class="cls-1" d="M117.82,54.91H104.09a1.15,1.15,0,0,1,0-2.29h13.73a1.15,1.15,0,0,1,0,2.29Z"/><path class="cls-1" d="M106.38,61.77h-2.29a1.15,1.15,0,0,1,0-2.29h2.29a1.15,1.15,0,0,1,0,2.29Z"/></g></g></svg>