<svg xmlns="http://www.w3.org/2000/svg" width="56.28mm" height="50.13mm" viewBox="0 0 159.53 142.09"><defs><style>.cls-1{fill:none;stroke:#010101;stroke-miterlimit:10;stroke-width:3px;}</style></defs><g id="Layer_2" data-name="Layer 2"><g id="Layer_13" data-name="Layer 13"><path class="cls-1" d="M63,1.5C58.27,1.75,50.58,3,46.5,9.09L27.78,38.59,26.25,41l2.68,1.4L39.78,48.1,14.15,51,5,51.94l7.87,4.18,2.79,1.49L6.38,71.92A14.3,14.3,0,0,0,6.86,87c1.17,1.62,5.53,8.61,9.69,15.35,3.89,6.3,7.42,11.94,9.12,14.4a2.93,2.93,0,0,0,.48.79s.07,0,.1.08c2.62,3.59,7.54,8.94,15.35,9.08H82.11V112.58l15.55,18.76,5.57,6.64V126.72l18.33.26a16.91,16.91,0,0,0,7.39-2,14.75,14.75,0,0,0,6.62-5.93c1-1.75,5.46-8.72,9.79-15.36,4.12-6.3,8-12.06,9.41-14.57a2.63,2.63,0,0,0,.39-.61s0-.07,0-.09c2.12-3.86,4.72-10.35,1-16.58v-.09L137.4,42.25l-1.54-2.36-2.69,1.4L122.42,47l10-21.64,3.64-7.68-8,4.19-2.69,1.4-9-14.49h-.1a14.82,14.82,0,0,0-5.47-4.88A16.88,16.88,0,0,0,102,1.59h-.48c-6.43.13-21.37,0-38.3-.09Zm.09,5.58h.2l25.43.09c-1.38,1.22-3,2.27-3.93,3.67l-5.86,9.25-.09.17a2.63,2.63,0,0,0-.39.61L58.88,51.67,34.6,38.93,51.78,12C54.18,8.36,59.16,7.31,63.1,7.08Zm38.49.09h.48a10.6,10.6,0,0,1,5.48,1.49A11.11,11.11,0,0,1,111,11.53l10.56,16.93,1.54,2.45.19-.09-7,14.83L98.81,43.73l.1-.08L97.37,41.2,85,21.66l5.09-8A15.34,15.34,0,0,1,101.59,7.17ZM81.44,27.33l9,14.22L87.77,43l-8,4.18,9.11,1,25.63,2.88-10.94,5.68L101,58.13l1.53,2.45,18.72,29.58h-18V78.9l-5.57,6.72L82.11,104.38V90.16H41.51l9-14.31,2.78,1.48,8,4.19-3.65-7.68L47.46,52.11,58.4,57.87l2.69,1.4,1.53-2.36Zm52.21,20.16,17.09,27c2.27,3.75.62,8.38-1.15,11.61v.08s-.1.08-.1.09v.09a7.29,7.29,0,0,1-3.74,2.7,18.36,18.36,0,0,1-6.24,1.14h-11l-19.1-29.93Zm-92.14,6,6.81,14.74L46.79,70.7,34.12,90.59a2.73,2.73,0,0,0-1.35,2.18l-5.66,8.9a20.87,20.87,0,0,0-1.44,3.84c-1.48-2.36-2.09-3.25-3.74-5.93-4.17-6.74-8.3-13.36-10-15.71a8.19,8.19,0,0,1-1.34-5,9.52,9.52,0,0,1,1.06-4.1s0-.08,0-.09L22.5,58l1.63-2.45L24,55.43ZM143.83,95c-1.51,2.33-2,3.21-3.74,5.84-4.35,6.64-8.61,13.2-10,15.71a9.27,9.27,0,0,1-4,3.58,12.72,12.72,0,0,1-4.51,1.31l-21.41-.27H97.08v.27L86.33,108.48,97.08,95.57v.17h42.43A26.81,26.81,0,0,0,143.83,95ZM38,95.74H76v25.39H41.6C37,121,33.42,117.5,31.24,114.5v-.09a6,6,0,0,1-.87-4.45,14.39,14.39,0,0,1,2-5.49Z"/></g></g></svg>