<svg xmlns="http://www.w3.org/2000/svg" width="64.18mm" height="42.08mm" viewBox="0 0 181.93 119.28">
    <defs>
        <style>
            .cls-1 {
                fill: #FFFCEF;
            }


            .cls-3,
            .cls-4 {
                stroke: #FFFCEF;
                stroke: 3px;
            }

            .cls-3 {
                stroke-width: 3px;
            }

            .cls-4 {
                stroke-width: 3px;
            }

            stroke, path, circle, rect {
                fill: #FFFCEF;
            }
        </style>
    </defs>
    <g id="Layer_2" data-name="Layer 2">
        <g id="Layer_13" data-name="Layer 13">
            <path class="cls-1"
                d="M132.16,11.53l46.77,42.54V96.62H9V11.53H132.16m0-3H9a3,3,0,0,0-3,3V96.62a3,3,0,0,0,3,3h169.9a3,3,0,0,0,3-3V54.07a3,3,0,0,0-1-2.22L134.17,9.31a3,3,0,0,0-2-.78Z" />
            <path d="M41.5,118.9A18.5,18.5,0,1,1,60,100.4,18.52,18.52,0,0,1,41.5,118.9Z" />
            <path class="cls-1"
                d="M41.5,82.27A18.13,18.13,0,1,1,23.37,100.4,18.13,18.13,0,0,1,41.5,82.27m0-.75A18.88,18.88,0,1,0,60.37,100.4,18.9,18.9,0,0,0,41.5,81.52Z" />
            <circle fill="#FFFCEF" class="cls-2" cx="41.18" cy="100.54" r="5.75" />
            <circle fill="#FFFCEF" class="cls-1" cx="145.39" cy="100.4" r="18.5" />
            <path class="cls-1"
                d="M145.39,82.27a18.13,18.13,0,1,1-18.12,18.13,18.13,18.13,0,0,1,18.12-18.13m0-.75a18.88,18.88,0,1,0,18.88,18.88,18.89,18.89,0,0,0-18.88-18.88Z" />
            <line class="cls-3" x1="8.27" y1="54.12" x2="178.93" y2="54.07" />
            <line class="cls-4" x1="59.62" y1="54.07" x2="59.62" y2="11.53" />
            <line class="cls-4" x1="111.92" y1="54.07" x2="111.92" y2="9.56" />
            <line class="cls-4" x1="23.37" y1="7.98" x2="23.37" y2="1.07" />
            <line class="cls-4" x1="119.3" y1="7.98" x2="119.3" y2="1.07" />
            <line class="cls-4" x1="22.06" y1="1" x2="120.61" y2="1" />
            <line class="cls-4" x1="8.21" y1="89.74" x2="1.61" y2="89.74" />
            <line class="cls-4" x1="2.12" y1="90.14" x2="2.12" y2="76.89" />
            <circle fill="#FFFCEF" class="cls-4" cx="2.12" cy="75.81" r="1.12" />
            <circle fill="#FFFCEF" class="cls-2" cx="145.79" cy="100.29" r="5.75" />
        </g>
    </g>
</svg>